<svg width="47" height="48" viewBox="0 0 47 48" fill="none" xmlns="http://www.w3.org/2000/svg">
<path fill-rule="evenodd" clip-rule="evenodd" d="M1.05835 41.4267C0.808389 41.1766 0.667969 40.8376 0.667969 40.484C0.667969 40.1305 0.808389 39.7914 1.05835 39.5413L12.3704 28.2267C12.6204 27.9767 12.9595 27.8363 13.313 27.8363C13.6666 27.8363 14.0056 27.9767 14.2557 28.2267L19.9144 33.8854C20.1643 34.1354 20.3047 34.4745 20.3047 34.828C20.3047 35.1816 20.1643 35.5206 19.9144 35.7707L8.59968 47.0854C8.34965 47.3353 8.01057 47.4757 7.65702 47.4757C7.30347 47.4757 6.96439 47.3353 6.71435 47.0854L1.05835 41.4267ZM3.88502 40.4853L7.65568 44.256L17.085 34.8267L13.3144 31.056L3.88502 40.4853Z" fill="#262522"/>
<path fill-rule="evenodd" clip-rule="evenodd" d="M12.3699 30.1093C12.1199 29.8593 11.9795 29.5202 11.9795 29.1667C11.9795 28.8131 12.1199 28.474 12.3699 28.224L39.2099 1.38399C39.7105 0.884067 40.3347 0.525863 41.0189 0.345911C41.7032 0.16596 42.4229 0.1707 43.1046 0.359647C43.7864 0.548595 44.4059 0.91499 44.8999 1.42146C45.3939 1.92794 45.7447 2.55637 45.9165 3.24266L46.3485 4.97066C47.0741 7.87429 47.0354 10.9163 46.2363 13.8006C45.4372 16.6848 43.9049 19.3131 41.7885 21.4293L25.5699 37.6507C25.1984 38.0224 24.7573 38.3172 24.2719 38.5184C23.7864 38.7196 23.266 38.8231 22.7405 38.8231C22.215 38.8231 21.6947 38.7196 21.2092 38.5184C20.7237 38.3172 20.2827 38.0224 19.9112 37.6507L12.3699 30.1093ZM15.1965 29.1653L21.7965 35.7653C22.0466 36.0153 22.3857 36.1557 22.7392 36.1557C23.0928 36.1557 23.4318 36.0153 23.6819 35.7653L39.9032 19.544C41.6942 17.7532 42.991 15.5291 43.6672 13.0883C44.3434 10.6475 44.376 8.07314 43.7619 5.61599L43.3299 3.89066C43.2727 3.66192 43.156 3.45244 42.9915 3.28354C42.827 3.11465 42.6206 2.9924 42.3935 2.92924C42.1663 2.86608 41.9265 2.86428 41.6984 2.92403C41.4704 2.98377 41.2622 3.10292 41.0952 3.26932L15.1965 29.1653Z" fill="#262522"/>
</svg>
