<svg width="65" height="64" viewBox="0 0 65 64" fill="none" xmlns="http://www.w3.org/2000/svg">
<g clipPath="url(#clip0_111_173)">
<path d="M26.0003 24C25.6467 24 25.3076 23.8595 25.0575 23.6095C24.8075 23.3594 24.667 23.0203 24.667 22.6666V14.6666C24.667 14.313 24.8075 13.9739 25.0575 13.7238C25.3076 13.4738 25.6467 13.3333 26.0003 13.3333C26.3539 13.3333 26.6931 13.4738 26.9431 13.7238C27.1932 13.9739 27.3337 14.313 27.3337 14.6666V22.6666C27.3337 23.0203 27.1932 23.3594 26.9431 23.6095C26.6931 23.8595 26.3539 24 26.0003 24ZM39.3337 24C38.98 24 38.6409 23.8595 38.3908 23.6095C38.1408 23.3594 38.0003 23.0203 38.0003 22.6666V14.6666C38.0003 14.313 38.1408 13.9739 38.3908 13.7238C38.6409 13.4738 38.98 13.3333 39.3337 13.3333C39.6873 13.3333 40.0264 13.4738 40.2765 13.7238C40.5265 13.9739 40.667 14.313 40.667 14.6666V22.6666C40.667 23.0203 40.5265 23.3594 40.2765 23.6095C40.0264 23.8595 39.6873 24 39.3337 24Z" fill="#262522"/>
<path d="M56.4453 16H8.50927C7.11023 16.0009 5.74645 15.5611 4.6115 14.743C3.47656 13.925 2.62812 12.7702 2.18661 11.4426L0.733275 7.08798C0.667709 6.88745 0.65047 6.67425 0.682965 6.46579C0.715459 6.25733 0.796767 6.0595 0.920256 5.88843C1.04374 5.71737 1.20592 5.57791 1.39355 5.48144C1.58118 5.38497 1.78896 5.33421 1.99994 5.33331H63.3333C63.5527 5.33408 63.7685 5.38886 63.9617 5.49281C64.1548 5.59676 64.3195 5.74668 64.441 5.92934C64.5625 6.11199 64.6371 6.32176 64.6584 6.54011C64.6796 6.75847 64.6467 6.97868 64.5626 7.18131L62.5973 11.9013C62.0923 13.1165 61.2383 14.1545 60.1432 14.8841C59.0481 15.6137 57.7612 16.002 56.4453 16ZM3.84794 7.99998L4.71461 10.6C4.98039 11.3961 5.48985 12.0884 6.17088 12.579C6.8519 13.0695 7.66997 13.3334 8.50927 13.3333H56.4426C58.0613 13.3333 59.5119 12.368 60.1359 10.872L61.3333 7.99998H3.84794ZM52.6666 58.6666H12.6666C12.0988 58.6658 11.5376 58.5443 11.0204 58.3101C10.5031 58.0758 10.0415 57.7343 9.66629 57.3082C9.29106 56.882 9.01073 56.3809 8.84389 55.8381C8.67706 55.2954 8.62754 54.7233 8.69861 54.16L12.0879 27.1706C12.2928 25.5597 13.0774 24.0786 14.2951 23.0043C15.5127 21.9299 17.0801 21.3359 18.7039 21.3333H46.6293C49.9813 21.3333 52.8239 23.84 53.2426 27.168L56.6346 54.1627C56.7053 54.7258 56.6554 55.2975 56.4884 55.84C56.3214 56.3824 56.041 56.8832 55.6658 57.309C55.2906 57.7349 54.8292 58.0762 54.3121 58.3102C53.7951 58.5443 53.2342 58.6658 52.6666 58.6666ZM18.7039 24C16.6933 24 14.9866 25.504 14.7359 27.5013L11.3439 54.4986C11.3333 55.4 11.9306 56 12.6666 56H52.6666C53.0202 56 53.3594 55.8595 53.6094 55.6095C53.8595 55.3594 53.9999 55.0203 53.9999 54.6666L50.5973 27.5013C50.4747 26.535 50.0042 25.6465 49.2739 25.002C48.5435 24.3576 47.6033 24.0013 46.6293 24H18.7039Z" fill="#262522"/>
<path d="M43.3337 45.3333C42.98 45.3333 42.6409 45.1929 42.3909 44.9428C42.1408 44.6928 42.0003 44.3536 42.0003 44C42.0003 38.8533 37.8137 34.6667 32.667 34.6667C27.5203 34.6667 23.3337 38.8533 23.3337 44C23.3337 44.3536 23.1932 44.6928 22.9431 44.9428C22.6931 45.1929 22.3539 45.3333 22.0003 45.3333C21.6467 45.3333 21.3076 45.1929 21.0575 44.9428C20.8075 44.6928 20.667 44.3536 20.667 44C20.667 37.384 26.051 32 32.667 32C39.283 32 44.667 37.384 44.667 44C44.667 44.3536 44.5265 44.6928 44.2765 44.9428C44.0264 45.1929 43.6873 45.3333 43.3337 45.3333Z" fill="#262522"/>
<path d="M32.6673 48C32.4399 48 32.2163 47.9418 32.0177 47.8311C31.8192 47.7203 31.6522 47.5606 31.5328 47.3671C31.4133 47.1737 31.3454 46.9529 31.3353 46.7257C31.3252 46.4986 31.3734 46.2726 31.4753 46.0693L34.1419 40.736C34.3 40.4195 34.5773 40.1788 34.9129 40.0667C35.2485 39.9547 35.6148 39.9806 35.9313 40.1387C36.2478 40.2967 36.4885 40.5741 36.6005 40.9096C36.7125 41.2452 36.6867 41.6115 36.5286 41.928L33.8619 47.2613C33.7505 47.4828 33.5799 47.6691 33.369 47.7995C33.1581 47.9299 32.9152 47.9993 32.6673 48Z" fill="#262522"/>
</g>
<defs>
<clipPath id="clip0_111_173">
<rect width="64" height="64" fill="white" transform="translate(0.666992)"/>
</clipPath>
</defs>
</svg>
