<svg width="65" height="64" viewBox="0 0 65 64" fill="none" xmlns="http://www.w3.org/2000/svg">
<path fillRule="evenodd" clipRule="evenodd" d="M17.7917 46.544C17.1133 45.8477 16.3034 45.2931 15.409 44.9123C14.5145 44.5315 13.5534 44.3322 12.5813 44.3259C11.6092 44.3196 10.6455 44.5064 9.74617 44.8754C8.84684 45.2445 8.02977 45.7886 7.34238 46.4759C6.65498 47.1633 6.11096 47.9804 5.74187 48.8797C5.37278 49.7791 5.18598 50.7427 5.19231 51.7148C5.19863 52.6869 5.39797 53.6481 5.77873 54.5426C6.1595 55.437 6.71411 56.2469 7.4104 56.9253C8.79311 58.2725 10.6508 59.0208 12.5813 59.0082C14.5117 58.9957 16.3595 58.2232 17.7246 56.8582C19.0897 55.4931 19.8621 53.6453 19.8747 51.7148C19.8872 49.7844 19.1389 47.9267 17.7917 46.544ZM5.52506 44.6586C6.4494 43.7075 7.55358 42.9495 8.77342 42.4288C9.99326 41.9081 11.3044 41.6351 12.6307 41.6256C13.957 41.6161 15.272 41.8704 16.4991 42.3735C17.7263 42.8767 18.8412 43.6188 19.7791 44.5566C20.7169 45.4945 21.459 46.6094 21.9622 47.8366C22.4653 49.0637 22.7196 50.3787 22.7101 51.705C22.7006 53.0313 22.4276 54.3424 21.9069 55.5623C21.3862 56.7821 20.6282 57.8863 19.6771 58.8106C17.7913 60.6432 15.2601 61.6599 12.6307 61.6411C10.0013 61.6223 7.48493 60.5694 5.62561 58.7101C3.76629 56.8508 2.71341 54.3344 2.69459 51.705C2.67578 49.0756 3.69254 46.5444 5.52506 44.6586Z" fill="#262522"/>
<path fillRule="evenodd" clipRule="evenodd" d="M12.2102 52.1253C12.1066 52.0217 12.0484 51.8812 12.0484 51.7346C12.0484 51.5881 12.1066 51.4476 12.2102 51.344C12.3138 51.2404 12.4544 51.1822 12.6009 51.1822C12.7474 51.1822 12.8879 51.2404 12.9915 51.344C13.0429 51.3953 13.0835 51.4562 13.1113 51.5232C13.1391 51.5903 13.1534 51.6621 13.1534 51.7346C13.1534 51.8072 13.1391 51.879 13.1113 51.9461C13.0835 52.0131 13.0429 52.074 12.9915 52.1253C12.9402 52.1766 12.8793 52.2173 12.8123 52.2451C12.7453 52.2728 12.6734 52.2871 12.6009 52.2871C12.5283 52.2871 12.4565 52.2728 12.3895 52.2451C12.3224 52.2173 12.2615 52.1766 12.2102 52.1253ZM10.3249 49.4586C10.026 49.7575 9.7889 50.1124 9.62714 50.5029C9.46538 50.8934 9.38213 51.312 9.38213 51.7346C9.38213 52.1573 9.46538 52.5759 9.62714 52.9664C9.7889 53.3569 10.026 53.7118 10.3249 54.0106C10.9285 54.6143 11.7472 54.9534 12.6009 54.9534C13.0236 54.9534 13.4421 54.8701 13.8326 54.7084C14.2232 54.5466 14.578 54.3095 14.8769 54.0106C15.4805 53.407 15.8196 52.5883 15.8196 51.7346C15.8196 50.881 15.4805 50.0623 14.8769 49.4586C14.2732 48.855 13.4545 48.5159 12.6009 48.5159C11.7472 48.5159 10.9285 48.855 10.3249 49.4586ZM41.1515 1.33331C41.3383 1.32351 41.5251 1.35311 41.6996 1.42019C41.8742 1.48726 42.0327 1.59031 42.1649 1.72265L48.2982 7.85598C48.4323 7.98958 48.5365 8.15021 48.6037 8.32718C48.6709 8.50415 48.6997 8.69341 48.6881 8.88236C48.6765 9.07131 48.6248 9.25562 48.5364 9.42304C48.448 9.59045 48.325 9.73713 48.1755 9.85332L39.1062 16.9066L17.7409 44.3733C17.6349 44.5158 17.5016 44.6357 17.3487 44.726C17.1958 44.8162 17.0264 44.875 16.8504 44.899C16.6745 44.9229 16.4956 44.9114 16.3241 44.8652C16.1526 44.819 15.9921 44.7391 15.852 44.63C15.7119 44.521 15.595 44.385 15.5081 44.2302C15.4212 44.0753 15.3661 43.9047 15.3461 43.7283C15.326 43.5518 15.3414 43.3732 15.3914 43.2028C15.4413 43.0324 15.5248 42.8737 15.6369 42.736L37.1035 15.136C37.1719 15.0492 37.2507 14.9713 37.3382 14.904L45.3462 8.67465L41.3275 4.65598L7.50355 46.44C7.39324 46.576 7.25721 46.689 7.10323 46.7725C6.94925 46.856 6.78034 46.9083 6.60614 46.9265C6.25432 46.9633 5.90231 46.8588 5.62755 46.636C5.35278 46.4132 5.17777 46.0904 5.14101 45.7386C5.10426 45.3868 5.20876 45.0347 5.43155 44.76L40.1862 1.82665C40.3038 1.68189 40.4505 1.56342 40.6168 1.4789C40.7831 1.39438 40.9653 1.34303 41.1515 1.33331ZM62.9995 23.1813C63.0093 22.9946 62.9798 22.8078 62.9127 22.6332C62.8456 22.4587 62.7425 22.3001 62.6102 22.168L56.4769 16.0346C56.3431 15.9007 56.1823 15.7967 56.0052 15.7297C55.8282 15.6627 55.6389 15.6342 55.4499 15.6461C55.2609 15.6579 55.0767 15.7099 54.9094 15.7985C54.7421 15.8871 54.5955 16.0103 54.4795 16.16L47.4262 25.2267L19.9595 46.592C19.6802 46.8091 19.4985 47.1283 19.4545 47.4794C19.4105 47.8304 19.5078 48.1846 19.7249 48.464C19.942 48.7433 20.2612 48.925 20.6123 48.969C20.9633 49.013 21.3175 48.9158 21.5969 48.6986L49.1969 27.232C49.2835 27.1636 49.3615 27.0848 49.4289 26.9973L55.6582 18.9893L59.6769 23.008L17.8929 56.8266C17.6178 57.0494 17.4424 57.3724 17.4054 57.7244C17.3684 58.0765 17.4728 58.4289 17.6955 58.704C17.9183 58.9791 18.2413 59.1545 18.5933 59.1915C18.9454 59.2285 19.2978 59.1241 19.5729 58.9013L62.5062 24.144C62.651 24.0264 62.7694 23.8797 62.854 23.7134C62.9385 23.5471 62.9872 23.3649 62.9969 23.1786L62.9995 23.1813Z" fill="#262522"/>
<path fillRule="evenodd" clipRule="evenodd" d="M32.7228 11.056C32.8466 10.9318 32.9938 10.8333 33.1557 10.7661C33.3177 10.6988 33.4914 10.6642 33.6668 10.6642C33.8422 10.6642 34.0158 10.6988 34.1778 10.7661C34.3398 10.8333 34.4869 10.9318 34.6108 11.056L38.6108 15.056C38.7347 15.1799 38.8331 15.3271 38.9002 15.4891C38.9673 15.651 39.0018 15.8246 39.0018 16C39.0018 16.1753 38.9673 16.3489 38.9002 16.5109C38.8331 16.6728 38.7347 16.82 38.6108 16.944C38.4868 17.0679 38.3396 17.1663 38.1777 17.2334C38.0157 17.3004 37.8421 17.335 37.6668 17.335C37.4915 17.335 37.3179 17.3004 37.1559 17.2334C36.9939 17.1663 36.8467 17.0679 36.7228 16.944L32.7228 12.944C32.5986 12.8201 32.5001 12.673 32.4329 12.511C32.3657 12.349 32.3311 12.1753 32.3311 12C32.3311 11.8246 32.3657 11.6509 32.4329 11.4889C32.5001 11.327 32.5986 11.1798 32.7228 11.056ZM47.3894 25.7226C47.5133 25.5985 47.6604 25.4999 47.8224 25.4327C47.9844 25.3655 48.1581 25.3309 48.3334 25.3309C48.5088 25.3309 48.6825 25.3655 48.8445 25.4327C49.0064 25.4999 49.1536 25.5985 49.2774 25.7226L53.2774 29.7226C53.5278 29.973 53.6685 30.3126 53.6685 30.6666C53.6685 31.0207 53.5278 31.3603 53.2774 31.6106C53.0271 31.861 52.6875 32.0016 52.3334 32.0016C51.9794 32.0016 51.6398 31.861 51.3894 31.6106L47.3894 27.6106C47.2653 27.4868 47.1668 27.3396 47.0995 27.1777C47.0323 27.0157 46.9977 26.842 46.9977 26.6666C46.9977 26.4912 47.0323 26.3176 47.0995 26.1556C47.1668 25.9936 47.2653 25.8465 47.3894 25.7226Z" fill="#262522"/>
</svg>
